<svg xmlns="http://www.w3.org/2000/svg" width="64" height="64" viewBox="0 0 64 64">
  <defs>
    <style>
      .a {
        fill: none;
      }
    </style>
  </defs>
  <title>nb-iot-v3_outline</title>
  <rect class="a" width="64" height="64"/>
  <path d="M45,51H39V42h2v7h4Zm2,2a1,1,0,0,0,1,1h6a1,1,0,0,0,1-1V47a1,1,0,0,0-1-1H48a1,1,0,0,0-1,1ZM25,42H23v7H19v2h6Zm-8,5a1,1,0,0,0-1-1H10a1,1,0,0,0-1,1v6a1,1,0,0,0,1,1h6a1,1,0,0,0,1-1Zm14,5h2V42H31Zm5,3a1,1,0,0,0-1-1H29a1,1,0,0,0-1,1v6a1,1,0,0,0,1,1h6a1,1,0,0,0,1-1ZM47,7H17V37H47V7m1-3a2,2,0,0,1,2,2V38a2,2,0,0,1-2,2H16a2,2,0,0,1-2-2V6a2,2,0,0,1,2-2Zm-9,8V27h4V12Zm-6,5V28.42l4-1.09V17Zm-6,5v7h4V22Zm-6,5v2h4V27Zm4,6V31H21v2Zm6,0V31H27v2Zm6,0V29.38l-4,1.11V33Zm6,0V29H39v4Z"/>
</svg>
